<svg width="33" height="32" viewBox="0 0 33 32" fill="none" xmlns="http://www.w3.org/2000/svg">
<path d="M30.0616 19.6776C27.5511 11.5991 21.2311 5.27785 13.1518 2.7663C11.9136 2.38954 10.649 3.12052 10.2833 4.31216C9.88755 5.52284 10.5328 6.80949 11.7134 7.21002C11.7423 7.22295 11.772 7.23359 11.8016 7.2435C18.3695 9.30718 23.5226 14.4612 25.586 21.0303C25.5951 21.0592 25.6065 21.0881 25.6187 21.1163C26.0281 22.3269 27.3413 22.9341 28.5001 22.5542C29.7801 22.1676 30.4375 20.792 30.0616 19.6776Z" fill="#393939"/>
<path d="M9.9776 12.2112C9.69243 12.0795 9.39393 12.017 9.09028 12L7.5 16.8417C7.92086 17.1481 8.41981 17.3333 8.94858 17.3333C10.3555 17.3333 11.5 16.1337 11.5 14.659C11.4999 13.5997 10.9028 12.6386 9.9776 12.2112Z" fill="#393939"/>
<path d="M15.2362 23.9328C14.7812 23.1521 13.8634 22.6667 12.8394 22.6667C11.3656 22.6667 10.1667 23.6864 10.1667 24.9398C10.1667 25.5658 10.4599 26.1488 10.9915 26.5816C11.0312 26.6139 11.0778 26.6367 11.1193 26.6667L15.4426 25.4008C15.559 24.8933 15.5028 24.3906 15.2362 23.9328Z" fill="#393939"/>
<path d="M18.8334 18.6667C18.4656 18.6667 18.1667 18.9656 18.1667 19.3334C18.1667 19.7012 18.4655 20.0001 18.8334 20.0001C19.2012 20.0001 19.5001 19.7012 19.5001 19.3334C19.5001 18.9656 19.2012 18.6667 18.8334 18.6667Z" fill="#393939"/>
<path d="M24.5322 21.5313C22.3508 14.6055 17.7353 10.733 11.1618 8.24263C10.982 8.18306 10.8054 8.09639 10.6318 8L9.90446 10.1136C10.2253 10.1673 10.5427 10.249 10.8491 10.3837C12.2923 11.0211 13.2251 12.4525 13.2251 14.0309C13.2251 16.228 11.4381 18.0158 9.24184 18.0158C8.5697 18.0158 7.93299 17.8178 7.36018 17.507L3.54366 28.2772C3.44406 28.5651 3.518 28.8843 3.73349 29.0998C3.95239 29.3188 4.27465 29.3878 4.55579 29.2897L9.24959 27.5701C8.73399 26.8858 8.44519 26.0646 8.44519 25.1885C8.44519 22.9914 10.2322 21.2036 12.4285 21.2036C13.9541 21.2036 15.3225 22.0535 15.9994 23.4218C16.2648 23.9579 16.3574 24.5354 16.3663 25.1191L24.8333 22.2029C24.7137 21.9905 24.6117 21.7665 24.5322 21.5313ZM14.5851 19.3762C14.2739 19.6874 13.7696 19.6874 13.4584 19.3762C13.1473 19.0649 13.1473 18.5603 13.4584 18.2491C13.7695 17.9379 14.2739 17.9379 14.5851 18.2491C14.8962 18.5603 14.8962 19.065 14.5851 19.3762ZM15.0518 13.0004C14.7406 12.689 14.7406 12.1847 15.0518 11.8734C15.3629 11.5621 15.8671 11.5621 16.1783 11.8734L17.7715 13.4673C18.0827 13.7786 18.0827 14.283 17.7715 14.5943C17.4603 14.9056 16.9563 14.9056 16.6451 14.5943L15.0518 13.0004ZM18.8016 21.2036C17.4838 21.2036 16.4117 20.1311 16.4117 18.8127C16.4117 17.4943 17.4838 16.4217 18.8016 16.4217C20.1195 16.4217 21.1916 17.4943 21.1916 18.8127C21.1916 20.1311 20.1195 21.2036 18.8016 21.2036Z" fill="#393939"/>
</svg>
